<svg width="59" height="80" viewBox="0 0 59 80" fill="none" xmlns="http://www.w3.org/2000/svg">
<path d="M6.12 72.38C6.20657 73.3489 6.66336 74.2472 7.39534 74.8879C8.12732 75.5286 9.07814 75.8624 10.05 75.82H38C38.9719 75.8624 39.9227 75.5286 40.6547 74.8879C41.3866 74.2472 41.8434 73.3489 41.93 72.38L43.86 30.86H4.19L6.12 72.38ZM31.12 43.24C31.0973 42.8616 31.1522 42.4825 31.2814 42.1261C31.4106 41.7696 31.6113 41.4434 31.8712 41.1674C32.1311 40.8914 32.4447 40.6715 32.7927 40.5212C33.1408 40.3709 33.5159 40.2933 33.895 40.2933C34.2741 40.2933 34.6492 40.3709 34.9973 40.5212C35.3453 40.6715 35.6589 40.8914 35.9188 41.1674C36.1787 41.4434 36.3795 41.7696 36.5086 42.1261C36.6378 42.4825 36.6927 42.8616 36.67 43.24V61.76C36.6927 62.1384 36.6378 62.5175 36.5086 62.8739C36.3795 63.2303 36.1787 63.5566 35.9188 63.8326C35.6589 64.1086 35.3453 64.3285 34.9973 64.4788C34.6492 64.6291 34.2741 64.7066 33.895 64.7066C33.5159 64.7066 33.1408 64.6291 32.7927 64.4788C32.4447 64.3285 32.1311 64.1086 31.8712 63.8326C31.6113 63.5566 31.4106 63.2303 31.2814 62.8739C31.1522 62.5175 31.0973 62.1384 31.12 61.76V43.24ZM21.25 39.11C21.25 38.3727 21.5429 37.6656 22.0642 37.1442C22.5856 36.6229 23.2927 36.33 24.03 36.33C24.7673 36.33 25.4744 36.6229 25.9958 37.1442C26.5171 37.6656 26.81 38.3727 26.81 39.11V65.89C26.81 66.6273 26.5171 67.3344 25.9958 67.8557C25.4744 68.3771 24.7673 68.67 24.03 68.67C23.2927 68.67 22.5856 68.3771 22.0642 67.8557C21.5429 67.3344 21.25 66.6273 21.25 65.89V39.11ZM11.39 43.24C11.3673 42.8616 11.4222 42.4825 11.5514 42.1261C11.6806 41.7696 11.8813 41.4434 12.1412 41.1674C12.4011 40.8914 12.7147 40.6715 13.0627 40.5212C13.4108 40.3709 13.7859 40.2933 14.165 40.2933C14.5441 40.2933 14.9192 40.3709 15.2673 40.5212C15.6153 40.6715 15.9289 40.8914 16.1888 41.1674C16.4487 41.4434 16.6495 41.7696 16.7786 42.1261C16.9078 42.4825 16.9627 42.8616 16.94 43.24V61.76C16.9627 62.1384 16.9078 62.5175 16.7786 62.8739C16.6495 63.2303 16.4487 63.5566 16.1888 63.8326C15.9289 64.1086 15.6153 64.3285 15.2673 64.4788C14.9192 64.6291 14.5441 64.7066 14.165 64.7066C13.7859 64.7066 13.4108 64.6291 13.0627 64.4788C12.7147 64.3285 12.4011 64.1086 12.1412 63.8326C11.8813 63.5566 11.6806 63.2303 11.5514 62.8739C11.4222 62.5175 11.3673 62.1384 11.39 61.76V43.24Z" fill="white"/>
<path d="M1.63 30.36H3.92001H44.08H46.38V26.37H1.63V30.36Z" fill="white"/>
<path d="M33.56 2.66999L30.01 0.299988L0.380005 21.43L1.46 25.56L33.56 2.66999Z" fill="white"/>
<path d="M16.16 4.66998L9.02002 9.75998L8.08002 15.32L21.72 5.59998L16.16 4.66998Z" fill="white"/>
<path d="M14.14 64C14.743 63.9974 15.3203 63.756 15.7458 63.3287C16.1712 62.9014 16.41 62.323 16.41 61.72V43.24C16.4307 42.9286 16.3872 42.6162 16.2822 42.3222C16.1772 42.0283 16.013 41.759 15.7997 41.5311C15.5864 41.3033 15.3286 41.1216 15.0423 40.9974C14.7559 40.8732 14.4471 40.8091 14.135 40.8091C13.8229 40.8091 13.5141 40.8732 13.2277 40.9974C12.9414 41.1216 12.6836 41.3033 12.4703 41.5311C12.257 41.759 12.0928 42.0283 11.9878 42.3222C11.8829 42.6162 11.8394 42.9286 11.86 43.24V61.76C11.8705 62.3577 12.1153 62.9274 12.5418 63.3464C12.9682 63.7654 13.5422 64.0001 14.14 64V64Z" fill="white"/>
<path d="M24 68.16C24.603 68.16 25.1814 67.9212 25.6087 67.4958C26.036 67.0703 26.2774 66.493 26.28 65.89V39.11C26.28 38.5053 26.0398 37.9254 25.6122 37.4978C25.1846 37.0702 24.6047 36.83 24 36.83C23.3953 36.83 22.8154 37.0702 22.3878 37.4978C21.9602 37.9254 21.72 38.5053 21.72 39.11V65.89C21.7226 66.493 21.964 67.0703 22.3913 67.4958C22.8186 67.9212 23.397 68.16 24 68.16V68.16Z" fill="white"/>
<path d="M33.86 64C34.4647 64 35.0446 63.7598 35.4722 63.3322C35.8998 62.9046 36.14 62.3247 36.14 61.72V43.24C36.1607 42.9286 36.1171 42.6162 36.0122 42.3222C35.9072 42.0283 35.743 41.759 35.5297 41.5311C35.3164 41.3033 35.0586 41.1216 34.7723 40.9974C34.4859 40.8732 34.1771 40.8091 33.865 40.8091C33.5529 40.8091 33.2441 40.8732 32.9577 40.9974C32.6714 41.1216 32.4136 41.3033 32.2003 41.5311C31.987 41.759 31.8228 42.0283 31.7178 42.3222C31.6128 42.6162 31.5693 42.9286 31.59 43.24V61.76C31.6004 62.356 31.8439 62.9242 32.2682 63.3429C32.6925 63.7616 33.2639 63.9975 33.86 64V64Z" fill="white"/>
<path d="M10.05 76.32H6.07001V79.75H41.93V76.32H37.95H10.05Z" fill="white"/>
<path d="M30.94 10.86L28.73 12.77L28.81 14.66C28.826 14.7087 28.826 14.7613 28.81 14.81L28 16V16.63L31.12 17.7C31.1585 17.7132 31.1932 17.7355 31.2211 17.7652C31.2489 17.7948 31.2692 17.8308 31.28 17.87C31.2975 17.904 31.3067 17.9417 31.3067 17.98C31.3067 18.0183 31.2975 18.056 31.28 18.09L30.37 19.23L32 20.91L36.45 19.83L38.45 18.21L38 16L37.83 14.13C37.8254 14.0751 37.8397 14.0204 37.8707 13.9749C37.9016 13.9293 37.9473 13.8958 38 13.88L39.37 13.39L35.5 10.87L33.7 11.87C33.6678 11.8875 33.6317 11.8967 33.595 11.8967C33.5583 11.8967 33.5222 11.8875 33.49 11.87L30.94 10.86Z" fill="white"/>
<path d="M48.39 8.23003L47.92 9.45003L48 12.56L50.33 13.56L52.4 12.71C52.436 12.6931 52.4752 12.6843 52.515 12.6843C52.5548 12.6843 52.594 12.6931 52.63 12.71L53.87 13.52L55.49 12.6L56.11 10.05C56.1008 10.0207 56.1008 9.98932 56.11 9.96003L57.24 8.55003C57.2552 8.52215 57.2801 8.50081 57.31 8.49003L58.68 7.73003L58.25 5.26003L56.47 3.80003C56.4209 3.75577 56.389 3.69555 56.38 3.63003L56.16 1.71003L54.47 1.28003L53 3.00003C52.9687 3.03347 52.9289 3.05768 52.8848 3.07003C52.8407 3.08237 52.7941 3.08237 52.75 3.07003L51.15 2.67003C51.1049 2.6624 51.0632 2.64151 51.03 2.61003L49.75 1.36003L46.88 3.75003V6.88003L48.3 7.93003C48.3456 7.96346 48.379 8.01083 48.3952 8.06496C48.4115 8.11909 48.4096 8.17704 48.39 8.23003V8.23003Z" fill="white"/>
</svg>
